<?xml version="1.0" encoding="UTF-8" standalone="no"?>
<!-- Created with Inkscape (http://www.inkscape.org/) -->

<svg
   width="48"
   height="48"
   viewBox="0 0 12.7 12.7"
   version="1.1"
   id="svg911"
   inkscape:version="1.1.2 (b8e25be833, 2022-02-05)"
   sodipodi:docname="icon.svg"
   inkscape:export-filename="C:\Users\Viktor\Desktop\icon128.png"
   inkscape:export-xdpi="256"
   inkscape:export-ydpi="256"
   xmlns:inkscape="http://www.inkscape.org/namespaces/inkscape"
   xmlns:sodipodi="http://sodipodi.sourceforge.net/DTD/sodipodi-0.dtd"
   xmlns="http://www.w3.org/2000/svg"
   xmlns:svg="http://www.w3.org/2000/svg">
  <sodipodi:namedview
     id="namedview913"
     pagecolor="#505050"
     bordercolor="#ffffff"
     borderopacity="1"
     inkscape:pageshadow="0"
     inkscape:pageopacity="0"
     inkscape:pagecheckerboard="1"
     inkscape:document-units="mm"
     showgrid="false"
     inkscape:zoom="5.12"
     inkscape:cx="-14.941406"
     inkscape:cy="32.226563"
     inkscape:window-width="1920"
     inkscape:window-height="1009"
     inkscape:window-x="-8"
     inkscape:window-y="-8"
     inkscape:window-maximized="1"
     inkscape:current-layer="layer5"
     units="px" />
  <defs
     id="defs908" />
  <g
     inkscape:groupmode="layer"
     id="layer3"
     inkscape:label="Shield"
     style="display:inline">
    <path
       style="fill:#245ba9;fill-opacity:1;stroke:#daefff;stroke-width:0.227;stroke-linecap:butt;stroke-linejoin:round;stroke-miterlimit:4;stroke-dasharray:none;stroke-opacity:1;paint-order:normal"
       d="M 6.4001626,0.15675254 1.5663753,1.5824822 C 1.2973282,1.6831854 1.1473471,2.0681715 1.1473471,2.0681715 v 3.728833 c 0,5.2281715 5.2528155,6.7683015 5.2528155,6.7683015 5.0534534,-1.482733 5.2528124,-6.4706234 5.2528124,-6.4706234 l 0.02994,-3.9168394 c 0,0 -0.07989,-0.4912399 -0.433992,-0.595361 z"
       id="path3521"
       sodipodi:nodetypes="cccscccsc" />
  </g>
  <g
     inkscape:groupmode="layer"
     id="layer5"
     inkscape:label="Book"
     style="display:inline">
    <g
       id="g23009"
       transform="matrix(0.01524894,0,0,0.01614942,2.6294518,1.3378918)"
       style="display:inline;fill:#e4f4ff;fill-opacity:1;stroke-width:1.00477;stroke-miterlimit:4;stroke-dasharray:none">
      <g
         id="g22942"
         style="fill:#e4f4ff;fill-opacity:1;stroke-width:1.00477;stroke-miterlimit:4;stroke-dasharray:none">
	<g
   id="g22940"
   style="fill:#e4f4ff;fill-opacity:1;stroke-width:1.00477;stroke-miterlimit:4;stroke-dasharray:none">
		<g
   id="g22938"
   style="fill:#e4f4ff;fill-opacity:1;stroke-width:1.00477;stroke-miterlimit:4;stroke-dasharray:none">
			<path
   d="m 371.5,52.138 c -48.289,0 -99.403,8.434 -120.5,26.564 C 229.903,60.571 178.789,52.138 130.5,52.138 67.647,52.138 0,66.424 0,97.786 v 342 0.074 c 0,5.523 4.477,10 10,10 0.394,0 0.781,-0.029 1.163,-0.074 h 238.669 c 0.052,0.006 0.103,0.017 0.155,0.023 0.333,0.033 0.67,0.051 1.012,0.051 0.342,0 0.679,-0.018 1.012,-0.051 0.053,-0.005 0.103,-0.017 0.156,-0.023 h 238.669 c 0.382,0.044 0.769,0.074 1.163,0.074 5.523,0 10,-4.477 10,-10 0,-0.012 0,-0.023 0,-0.035 0,-0.013 0,-0.026 0,-0.039 v -342 C 502,66.424 434.353,52.138 371.5,52.138 Z M 33.073,429.786 c 3.882,-1.808 8.834,-3.706 15.136,-5.566 21.855,-6.454 51.08,-10.008 82.291,-10.008 31.211,0 60.436,3.554 82.291,10.008 6.302,1.86 11.253,3.758 15.136,5.566 z M 241,414.023 c -24.733,-13.481 -68.702,-19.811 -110.5,-19.811 -41.798,0 -85.767,6.33 -110.5,19.811 V 97.786 c 0,-1.448 5.006,-8.777 28.13,-15.618 21.864,-6.468 51.117,-10.03 82.37,-10.03 31.253,0 60.506,3.562 82.37,10.03 23.124,6.842 28.13,14.17 28.13,15.618 z m 33.073,15.763 c 3.882,-1.808 8.834,-3.706 15.136,-5.566 21.855,-6.454 51.08,-10.008 82.291,-10.008 31.211,0 60.436,3.554 82.291,10.008 6.302,1.86 11.253,3.758 15.136,5.566 z M 482,414.023 c -24.733,-13.481 -68.702,-19.811 -110.5,-19.811 -41.798,0 -85.767,6.33 -110.5,19.811 V 97.786 c 0,-1.448 5.006,-8.777 28.13,-15.618 21.864,-6.468 51.117,-10.03 82.37,-10.03 31.253,0 60.506,3.562 82.37,10.03 23.124,6.842 28.13,14.17 28.13,15.618 z"
   id="path22914"
   style="fill:#e4f4ff;fill-opacity:1;stroke-width:1.00477;stroke-miterlimit:4;stroke-dasharray:none" />

			<path
   d="m 100.77,129.187 c 9.651,-0.745 19.653,-1.123 29.73,-1.123 28.459,0 55.799,3.033 76.984,8.54 0.843,0.219 1.689,0.324 2.522,0.324 4.444,0 8.501,-2.985 9.671,-7.487 1.39,-5.345 -1.817,-10.805 -7.163,-12.194 -22.781,-5.922 -51.908,-9.183 -82.016,-9.183 -10.588,0 -21.109,0.397 -31.27,1.182 -5.506,0.425 -9.626,5.233 -9.201,10.74 0.428,5.506 5.243,9.636 10.743,9.201 z"
   id="path22916"
   style="display:inline;fill:#e4f4ff;fill-opacity:1;stroke-width:1.00477;stroke-miterlimit:4;stroke-dasharray:none" />

			<path
   d="m 50.993,136.929 c 0.833,0 1.679,-0.105 2.522,-0.324 4.476,-1.164 9.297,-2.232 14.331,-3.178 5.428,-1.02 9.001,-6.247 7.982,-11.674 -1.02,-5.428 -6.248,-9.003 -11.674,-7.982 -5.481,1.03 -10.753,2.2 -15.669,3.477 -5.346,1.389 -8.553,6.849 -7.164,12.194 1.171,4.5 5.228,7.487 9.672,7.487 z"
   id="path22918"
   style="display:inline;fill:#e4f4ff;fill-opacity:1;stroke-width:1.00477;stroke-miterlimit:4;stroke-dasharray:none" />

			<path
   d="m 212.516,168.969 c -22.779,-5.922 -51.906,-9.183 -82.016,-9.183 -30.11,0 -59.237,3.261 -82.016,9.183 -5.345,1.39 -8.552,6.849 -7.162,12.194 1.39,5.345 6.85,8.551 12.194,7.162 21.183,-5.507 48.523,-8.54 76.984,-8.54 28.461,0 55.801,3.033 76.984,8.54 0.844,0.219 1.69,0.324 2.523,0.324 4.444,0 8.501,-2.985 9.671,-7.486 1.39,-5.345 -1.817,-10.804 -7.162,-12.194 z"
   id="path22920"
   style="display:inline;fill:#e4f4ff;fill-opacity:1;stroke-width:1.00477;stroke-miterlimit:4;stroke-dasharray:none" />

			<path
   d="m 212.516,220.664 c -22.779,-5.922 -51.906,-9.183 -82.016,-9.183 -30.11,0 -59.237,3.261 -82.016,9.183 -5.345,1.39 -8.552,6.849 -7.162,12.194 1.39,5.345 6.85,8.551 12.194,7.162 21.183,-5.507 48.523,-8.54 76.984,-8.54 28.461,0 55.801,3.033 76.984,8.54 0.844,0.219 1.69,0.324 2.523,0.324 4.444,0 8.501,-2.985 9.671,-7.486 1.39,-5.345 -1.817,-10.804 -7.162,-12.194 z"
   id="path22922"
   style="display:inline;fill:#e4f4ff;fill-opacity:1;stroke-width:1.00477;stroke-miterlimit:4;stroke-dasharray:none" />

			<path
   d="m 53.515,291.743 c 21.186,-5.507 48.525,-8.54 76.984,-8.54 28.459,0 55.799,3.033 76.984,8.54 0.843,0.219 1.689,0.324 2.522,0.324 4.444,0 8.501,-2.985 9.671,-7.487 1.392,-5.346 -1.815,-10.805 -7.16,-12.194 -22.781,-5.922 -51.908,-9.183 -82.016,-9.183 -30.108,0 -59.235,3.261 -82.016,9.183 -5.345,1.389 -8.552,6.849 -7.163,12.194 1.389,5.345 6.85,8.553 12.194,7.163 z"
   id="path22924"
   style="display:inline;fill:#e4f4ff;fill-opacity:1;stroke-width:1.00477;stroke-miterlimit:4;stroke-dasharray:none" />

			<path
   d="m 212.516,324.109 c -22.779,-5.922 -51.906,-9.183 -82.016,-9.183 -30.11,0 -59.237,3.261 -82.016,9.183 -5.345,1.39 -8.552,6.849 -7.162,12.194 1.39,5.345 6.85,8.552 12.194,7.162 21.183,-5.507 48.523,-8.54 76.984,-8.54 28.461,0 55.801,3.033 76.984,8.54 0.844,0.219 1.69,0.324 2.523,0.324 4.444,0 8.501,-2.985 9.671,-7.486 1.39,-5.345 -1.817,-10.806 -7.162,-12.194 z"
   id="path22926"
   style="display:inline;fill:#e4f4ff;fill-opacity:1;stroke-width:1.00477;stroke-miterlimit:4;stroke-dasharray:none" />

			<path
   d="m 294.516,136.604 c 21.186,-5.507 48.525,-8.54 76.984,-8.54 28.459,0 55.799,3.033 76.984,8.54 0.843,0.219 1.689,0.324 2.522,0.324 4.444,0 8.501,-2.985 9.671,-7.487 1.39,-5.345 -1.817,-10.805 -7.163,-12.194 -22.781,-5.922 -51.908,-9.183 -82.016,-9.183 -30.108,0 -59.235,3.261 -82.016,9.183 -5.345,1.389 -8.552,6.849 -7.163,12.194 1.392,5.345 6.852,8.553 12.197,7.163 z"
   id="path22928"
   style="display:inline;fill:#e4f4ff;fill-opacity:1;stroke-width:1.00477;stroke-miterlimit:4;stroke-dasharray:none" />

			<path
   d="m 453.516,168.971 c -22.779,-5.922 -51.906,-9.183 -82.016,-9.183 -30.11,0 -59.237,3.261 -82.016,9.183 -5.345,1.39 -8.552,6.849 -7.162,12.194 1.39,5.345 6.849,8.551 12.194,7.162 21.183,-5.507 48.523,-8.54 76.984,-8.54 28.461,0 55.801,3.033 76.984,8.54 0.844,0.219 1.69,0.324 2.523,0.324 4.444,0 8.501,-2.985 9.671,-7.486 1.39,-5.345 -1.817,-10.806 -7.162,-12.194 z"
   id="path22930"
   style="display:inline;fill:#e4f4ff;fill-opacity:1;stroke-width:1.00477;stroke-miterlimit:4;stroke-dasharray:none" />

			<path
   d="m 453.516,220.664 c -22.779,-5.922 -51.906,-9.183 -82.016,-9.183 -30.11,0 -59.237,3.261 -82.016,9.183 -5.345,1.39 -8.552,6.849 -7.162,12.194 1.39,5.345 6.849,8.552 12.194,7.162 21.183,-5.507 48.523,-8.54 76.984,-8.54 28.461,0 55.801,3.033 76.984,8.54 0.844,0.219 1.69,0.324 2.523,0.324 4.444,0 8.501,-2.985 9.671,-7.486 1.39,-5.345 -1.817,-10.804 -7.162,-12.194 z"
   id="path22932"
   style="display:inline;fill:#e4f4ff;fill-opacity:1;stroke-width:1.00477;stroke-miterlimit:4;stroke-dasharray:none" />

			<path
   d="m 294.515,291.743 c 21.186,-5.507 48.525,-8.54 76.984,-8.54 28.459,0 55.799,3.033 76.984,8.54 0.843,0.219 1.689,0.324 2.522,0.324 4.444,0 8.501,-2.985 9.671,-7.487 1.392,-5.346 -1.815,-10.805 -7.16,-12.194 -22.781,-5.922 -51.908,-9.183 -82.016,-9.183 -30.108,0 -59.235,3.261 -82.016,9.183 -5.345,1.389 -8.552,6.849 -7.163,12.194 1.389,5.345 6.849,8.553 12.194,7.163 z"
   id="path22934"
   style="display:inline;fill:#e4f4ff;fill-opacity:1;stroke-width:1.00477;stroke-miterlimit:4;stroke-dasharray:none" />

			<path
   d="m 453.516,324.109 c -22.779,-5.922 -51.906,-9.183 -82.016,-9.183 -30.11,0 -59.237,3.261 -82.016,9.183 -5.345,1.39 -8.552,6.849 -7.162,12.194 1.39,5.345 6.849,8.552 12.194,7.162 21.183,-5.507 48.523,-8.54 76.984,-8.54 28.461,0 55.801,3.033 76.984,8.54 0.844,0.219 1.69,0.324 2.523,0.324 4.444,0 8.501,-2.985 9.671,-7.486 1.39,-5.345 -1.817,-10.806 -7.162,-12.194 z"
   id="path22936"
   style="display:inline;fill:#e4f4ff;fill-opacity:1;stroke-width:1.00477;stroke-miterlimit:4;stroke-dasharray:none" />

		</g>

	</g>

</g>
      <g
         id="g22944"
         style="fill:#e4f4ff;fill-opacity:1;stroke-width:1.00477;stroke-miterlimit:4;stroke-dasharray:none">
</g>
      <g
         id="g22946"
         style="fill:#e4f4ff;fill-opacity:1;stroke-width:1.00477;stroke-miterlimit:4;stroke-dasharray:none">
</g>
      <g
         id="g22948"
         style="fill:#e4f4ff;fill-opacity:1;stroke-width:1.00477;stroke-miterlimit:4;stroke-dasharray:none">
</g>
      <g
         id="g22950"
         style="fill:#e4f4ff;fill-opacity:1;stroke-width:1.00477;stroke-miterlimit:4;stroke-dasharray:none">
</g>
      <g
         id="g22952"
         style="fill:#e4f4ff;fill-opacity:1;stroke-width:1.00477;stroke-miterlimit:4;stroke-dasharray:none">
</g>
      <g
         id="g22954"
         style="fill:#e4f4ff;fill-opacity:1;stroke-width:1.00477;stroke-miterlimit:4;stroke-dasharray:none">
</g>
      <g
         id="g22956"
         style="fill:#e4f4ff;fill-opacity:1;stroke-width:1.00477;stroke-miterlimit:4;stroke-dasharray:none">
</g>
      <g
         id="g22958"
         style="fill:#e4f4ff;fill-opacity:1;stroke-width:1.00477;stroke-miterlimit:4;stroke-dasharray:none">
</g>
      <g
         id="g22960"
         style="fill:#e4f4ff;fill-opacity:1;stroke-width:1.00477;stroke-miterlimit:4;stroke-dasharray:none">
</g>
      <g
         id="g22962"
         style="fill:#e4f4ff;fill-opacity:1;stroke-width:1.00477;stroke-miterlimit:4;stroke-dasharray:none">
</g>
      <g
         id="g22964"
         style="fill:#e4f4ff;fill-opacity:1;stroke-width:1.00477;stroke-miterlimit:4;stroke-dasharray:none">
</g>
      <g
         id="g22966"
         style="fill:#e4f4ff;fill-opacity:1;stroke-width:1.00477;stroke-miterlimit:4;stroke-dasharray:none">
</g>
      <g
         id="g22968"
         style="fill:#e4f4ff;fill-opacity:1;stroke-width:1.00477;stroke-miterlimit:4;stroke-dasharray:none">
</g>
      <g
         id="g22970"
         style="fill:#e4f4ff;fill-opacity:1;stroke-width:1.00477;stroke-miterlimit:4;stroke-dasharray:none">
</g>
      <g
         id="g22972"
         style="fill:#e4f4ff;fill-opacity:1;stroke-width:1.00477;stroke-miterlimit:4;stroke-dasharray:none">
</g>
    </g>
  </g>
</svg>
