<?xml version="1.0" encoding="UTF-8" standalone="no"?>
<!-- Created with Inkscape (http://www.inkscape.org/) -->

<svg
   width="48"
   height="48"
   viewBox="0 0 48 48"
   version="1.1"
   id="svg5"
   xmlns="http://www.w3.org/2000/svg"
   xmlns:svg="http://www.w3.org/2000/svg">
  <g
     id="g124"
     transform="matrix(1.0638298,0,0,1.0638298,-33.106385,-16.702127)">
    <circle
       id="Background"
       fill="#00aeef"
       cx="53.68"
       cy="38.259998"
       r="22.559999" />
    <path
       id="LockBackground"
       fill="#ffffff"
       d="m 61.2,31.68 -2.02,-5.83 -2.27,-3.61 -2.98,-0.98 -3.95,1.54 -2.47,4.66 -1.17,4.1 -2.78,0.61 -0.2,17.88 21.12,0.34 V 32.46 Z m -4.46,-0.15 -6,-0.12 -0.22,-1.49 1.66,-4.07 2.12,-0.76 1.29,0.15 0.98,1.68 0.8,3.59 z" />
    <g
       id="LockBorder">
      <path
         d="m 53.63,24.64 c -2.6,0.79 -3.42,2.44 -3.62,5.81 -0.06,0.85 -0.13,1.87 1,1.9 2.06,0.04 4.14,-0.1 6.2,-0.25 0.26,-0.02 0.69,-0.57 0.69,-0.93 0,-1.68 -0.43,-3.33 -0.95,-4.92 -0.58,-1.04 -1.49,-2.16 -3.32,-1.61 z m 2.07,6.17 c -0.76,0.18 -1.57,0.14 -2.36,0.2 -2.48,-0.01 -2.48,0 -1.85,-2.43 0.27,-1.05 0.63,-2.04 1.64,-2.64 0.97,-0.57 1.93,-0.45 2.38,0.55 0.49,1.09 0.78,2.29 1.05,3.46 0.12,0.54 -0.51,0.78 -0.86,0.86 z"
         id="path114" />
      <path
         d="m 65.43,37 c 0,-1.23 -0.05,-2.46 -0.02,-3.69 0.02,-0.95 -0.26,-1.56 -1.3,-1.68 -0.78,-0.09 -1.58,-0.19 -2.31,-0.45 -0.36,-0.13 -0.72,-0.6 -0.84,-0.99 -0.54,-1.85 -0.88,-3.76 -1.52,-5.57 -0.61,-1.7 -2.04,-2.97 -3.41,-3.63 0,0 -1.06,-0.53 -1.96,-0.45 -0.66,0.09 -1.25,0.25 -1.82,0.52 -3.35,1.62 -5.28,4.29 -5.79,7.98 -0.27,1.96 -0.24,1.97 -2.2,2.24 -1.64,0.23 -2,0.65 -1.98,2.45 0.02,1.39 0.11,2.77 0.1,4.16 -0.01,3.81 -0.06,7.61 -0.07,11.42 -0.01,1.93 0.02,1.93 1.88,1.93 6.65,0 13.3,0 19.95,0 1,0 1.29,-0.82 1.29,-1.19 0,-4.44 0,-8.74 0,-13.05 z m -1.69,-3.2 c 0,5.1 0,9.76 0,15.03 0,0.73 -0.29,0.87 -0.77,0.87 -6.15,0 -12.17,-0.03 -18.32,-0.24 -0.28,-0.01 -0.85,0.08 -0.85,-0.67 0,-0.87 0,-1.66 0,-2.45 0.01,-4.13 0.05,-8.25 0,-12.38 -0.01,-1.01 0.35,-1.31 1.29,-1.33 2.14,-0.05 2.37,-0.32 2.53,-2.48 0.19,-2.61 0.97,-5.01 3.1,-6.68 2.93,-2.3 5.32,-1.88 7.2,1.4 1.11,1.94 1.84,4 1.91,6.31 0.03,0.92 0.75,1.63 1.81,1.69 0.48,0.02 0.95,-0.02 1.46,0.06 0.71,0.09 0.64,0.58 0.64,0.87 z"
         id="path116" />
    </g>
    <g
       id="LockKeyhole">
      <path
         fill="#939598"
         d="m 51.47,45.4 4.61,-0.07 -0.92,-4.26 c 0,0 0.66,-1.29 0.76,-2.06 0.27,-2.07 -0.84,-3.22 -2.31,-3.09 -1.46,0.14 -2.27,1 -2.14,3.07 0.08,1.24 0.9,2.11 0.9,2.11 z"
         id="path119" />
      <path
         d="m 52.14,44.85 c 1.21,-0.06 2.52,-0.01 3.93,-0.02 l -0.48,0.61 v 0 L 54.67,41.18 54.63,41 54.71,40.84 v 0 c 0.18,-0.49 0.36,-1.02 0.49,-1.49 0.12,-0.44 0.13,-0.92 0.07,-1.37 -0.13,-0.91 -0.74,-1.42 -1.54,-1.36 -0.96,0.06 -1.42,0.5 -1.55,1.46 -0.06,0.47 -0.06,0.99 0.02,1.4 0.09,0.43 0.3,0.91 0.54,1.28 v 0 l 0.14,0.37 -0.02,0.08 c -0.27,1.3 -0.46,2.54 -0.72,3.64 z m -1.34,1.1 c 0.34,-1.77 0.74,-3.4 1.08,-4.96 L 52,41.44 v 0 c -0.49,-0.47 -0.82,-0.99 -1.03,-1.63 -0.11,-0.3 -0.16,-0.67 -0.17,-0.97 -0.02,-0.3 -0.01,-0.62 0.01,-0.94 0.06,-0.63 0.28,-1.37 0.86,-1.91 0.58,-0.55 1.31,-0.73 1.95,-0.78 0.7,-0.06 1.5,0.15 2.05,0.69 0.56,0.52 0.82,1.23 0.9,1.89 0.07,0.65 0.03,1.3 -0.19,1.92 -0.2,0.58 -0.47,1.08 -0.79,1.58 v 0 l 0.04,-0.33 0.92,4.26 v 0 l 0.13,0.59 -0.62,0.02 c -1.63,0.04 -3.4,0.14 -5.26,0.12 z"
         id="path121" />
    </g>
  </g>
</svg>
